<?xml version="1.0" encoding="UTF-8"?> <!-- Creator: CorelDRAW 2019 (64-Bit) --> <svg xmlns="http://www.w3.org/2000/svg" xmlns:xlink="http://www.w3.org/1999/xlink" xml:space="preserve" width="149.239mm" height="128.654mm" style="shape-rendering:geometricPrecision; text-rendering:geometricPrecision; image-rendering:optimizeQuality; fill-rule:evenodd; clip-rule:evenodd" viewBox="0 0 30428.48 26231.34"> <defs> <style type="text/css"> <![CDATA[ .fil0 {fill:white} .fil1 {fill:white;fill-rule:nonzero} ]]> </style> </defs> <g id="Слой_x0020_1"> <metadata id="CorelCorpID_0Corel-Layer"></metadata> <g id="_2725607147920"> <path class="fil0" d="M7583.78 0c2796.76,0 5064.88,2290.4 5064.88,5114.59l-0.33 27.26c-14.54,-2625.84 -2276.82,-4751.15 -5064.55,-4751.15 -2787.73,0 -5049.99,2125.31 -5064.55,4751.15l-0.33 -27.26c0,-2824.19 2268.12,-5114.59 5064.88,-5114.59z"></path> <path class="fil0" d="M12406.03 6130.73c-342.56,2324.92 -2357.79,4110.65 -4792.18,4110.65 -2125.35,0 -3931.27,-1361.15 -4583.53,-3253.84 724.08,1710.48 2491.05,2918.97 4555.7,2918.97 2395.08,0 4389.53,-1626.13 4820.01,-3775.78z"></path> <path class="fil0" d="M14015.88 9236.78l39.96 0 476.45 0c156,-440.36 610.16,-1018.35 670.57,-1309.36 60.41,-291.01 51.44,-494.03 -14.8,-811.46 -66.24,-317.44 -555.07,-824.27 -849.37,-831.85 -126.53,-3.28 -220.24,-3.87 -302.25,-2.71l-1.18 0c-82,-1.16 -175.71,-0.57 -302.25,2.71 -294.3,7.58 -783.12,514.42 -849.37,831.85 -66.24,317.44 -75.19,520.45 -14.8,811.46 60.41,291.01 514.58,869 670.57,1309.36l476.45 0zm-685.25 -1442.38c-8.4,-1158.57 1403.19,-1158.57 1394.79,0 -1.55,216.49 -475.59,948.6 -697.39,1005.02 -251.48,-82.68 -695.86,-788.53 -697.41,-1005.02z"></path> <path class="fil0" d="M15593.38 9204.91c187.82,4.65 335.5,-3 523.33,1.65 -6.95,-983.18 6.97,-1959.41 500.88,-2344.31 90.43,4.63 208.68,1553.58 313.03,2330.38 299.13,-4.63 563.39,-8.71 862.52,-13.33 -148.41,-1113.04 -624.31,-2270.77 -723.38,-2901.4 -322.31,-9.28 -600.33,12.68 -922.64,3.4 4.63,115.93 3.38,223.4 -30.4,316.58 -417.38,732.76 -606.8,1296.91 -523.33,2607.02z"></path> <path class="fil0" d="M18082.03 6235.92c294.5,-2.32 526.14,-4.16 820.62,-6.48 -53.34,663.19 -236.96,1492.17 -173.96,1919.22 76.93,521.53 939.53,523.98 908.49,61.74 -19.61,-292.34 -291.16,-330.59 -668.33,-311.65 -57.13,-348.22 472.13,-422.01 764.1,-346.74 341.45,88.06 631.59,411.59 619.95,701.48 -21.59,537.84 -419.38,782.35 -1036.19,914.53 -354.77,0 -671.13,0 -1025.91,0 -3.22,-944.6 -146.15,-1941.97 -208.76,-2932.1z"></path> <path class="fil0" d="M21720.37 9226.95l0 2.2 -17.72 -1.33 -17.72 1.33 0 -2.2c-62.68,-2.28 -116.58,3.47 -183.22,-2.41 6.95,-839.4 -129.18,-2020.08 -226.56,-2497.76 -175.63,40.23 -416,113.67 -574.15,253.72 -22.51,-239.41 -53.81,-468.3 -95.54,-709.44 374.36,2.26 719.94,-9.03 1093.4,-7.16l7.58 0c373.45,-1.88 719.08,9.42 1093.4,7.16 -41.74,241.14 -73.03,470.03 -95.54,709.44 -158.16,-140.05 -398.52,-213.49 -574.15,-253.72 -97.4,477.67 -233.52,1658.36 -226.56,2497.76 -66.65,5.87 -120.54,0.12 -183.22,2.41z"></path> <path class="fil0" d="M23205.32 6250.07c71.87,980.85 143.76,1961.71 215.63,2942.56 162.32,-6.95 324.63,-13.91 486.95,-20.86 2.32,-595.93 4.65,-1191.86 6.97,-1787.81 51.6,-323.31 410.66,-568.89 678.81,-468.99 268.14,99.91 345.94,782.51 -476.63,643.07 50.48,181.05 262.1,419.54 559.74,392.59 297.66,-26.93 923.85,-275.21 831.46,-831.53 -92.4,-556.31 -635.73,-920.05 -2302.94,-869.04z"></path> <path class="fil0" d="M25786.1 6263.75c113.87,897.97 138.67,1929.76 196.63,2908.31 537.96,6.95 1020.23,-7.56 1558.19,-0.61 48.69,-150.72 95.62,-252.44 144.33,-403.15 -75.22,46.47 -96.44,94.75 -256.56,107.67 -160.12,12.91 -458.83,29.54 -689.52,-31.15 -178.91,-84.23 -271.15,-124.09 -285.47,-469.76 -14.31,-345.66 220.98,-622.19 546.16,-874.63 -71.87,-90.43 -95.16,-118.58 -167.03,-209.01 -125.21,76.52 -368.86,290.44 -396.28,218.08 -9.91,-582.78 559.35,-866.7 1274.86,-616.28 6.95,-229.56 -0.2,-411.82 1.63,-643.15 -653.9,4.65 -1273.05,9.03 -1926.97,13.68z"></path> <path class="fil0" d="M29020.88 6270.95c-315.36,-4.65 -630.71,-9.28 -946.07,-13.93 150.72,987.83 301.61,1937.32 327.12,2911.23 124.66,12.31 184.7,5.32 307.59,-1.63 -16.58,-505.55 100.11,-1015.56 180.67,-1495.64 651.71,5.69 1180.61,819.58 1130.35,1504.87 176.22,0 229.44,0.88 405.66,0.88 6.36,-256.19 4.08,-725.62 -70.75,-1007.32 -87.55,-329.47 -304.61,-538.56 -437.18,-779.33 127.37,-127.76 285.77,-245.46 378.26,-417.59 104.74,-195.04 132.92,-451.27 80.6,-707.78 -180.87,2.32 -250.01,3.2 -430.86,5.53 73.36,377.91 -375.3,775.86 -968.95,691.35 6.95,-220.28 36.62,-470.35 43.57,-690.64z"></path> <path class="fil1" d="M14118.67 10439.57c0,103.62 -32.62,177.47 -97.89,221.53 -53.83,35.86 -135.81,53.83 -245.95,53.83l-291.28 0 0 -881.13 571.52 0 0 179.89 -350.06 0 0 148.11 69.81 0c229.23,0 343.84,92.57 343.84,277.78zm-223.95 0c0,-43.25 -13.05,-72.61 -39.15,-88.12 -18.78,-11.4 -53.83,-17.11 -105.23,-17.11l-45.32 0 0 204.36 45.32 0c47.3,0 81.17,-5.32 101.56,-15.9 28.59,-14.66 42.82,-42.45 42.82,-83.23zm2020.63 275.35l-216.63 0 0 -104.05c-61.15,84.9 -150.1,127.29 -266.77,127.29 -127.23,0 -230.48,-45.24 -309.61,-135.81 -78.31,-88.14 -117.46,-197.83 -117.46,-329.24 0,-130.53 39.53,-240.67 118.7,-330.42 79.13,-89.75 181.14,-134.63 305.94,-134.63 115.06,0 203.56,40.41 265.55,121.21l0 -95.48 220.28 0 0 881.13zm-212.96 -436.9c0,-73.4 -23.61,-136.83 -70.97,-190.29 -47.3,-53.46 -106.86,-80.15 -178.65,-80.15 -70.97,0 -129.33,27.3 -175.02,81.98 -44.02,51.4 -66.08,112.57 -66.08,183.54 0,71.79 22.88,133.83 68.57,186.03 48.1,54.64 106.84,82 176.2,82 67.69,0 126.07,-27.36 174.98,-82 47.36,-52.2 70.97,-112.57 70.97,-181.12zm1898.08 187.21c0,68.57 -26.53,126.49 -79.56,173.8 -46.49,40.84 -105.23,68.94 -176.22,84.47 -45.67,9.77 -88.94,14.66 -129.71,14.66 -161.54,0 -274.54,-54.64 -338.99,-163.97 -22.06,-36.72 -34.68,-80.37 -37.92,-130.96l216.55 0c3.3,39.17 21.27,68.55 53.89,88.14 28.54,17.09 63.23,25.67 104,25.67 74.26,0 125.23,-16.72 152.96,-50.16 11.44,-13.07 17.15,-30.58 17.15,-52.64 0,-66.08 -46.49,-102.37 -139.48,-108.9 -24.49,-1.63 -47.36,-2.43 -68.55,-2.43l-29.4 0 0 -156.69 33.07 0c81.6,0 135.87,-15.05 162.79,-45.26 12.23,-13.86 18.33,-33.07 18.33,-57.56 0,-66.88 -44.45,-100.31 -133.38,-100.31 -61.23,0 -103.62,16.72 -127.29,50.16 -8.95,13.05 -13.44,29.4 -13.44,48.97l-209.27 0c6.52,-95.46 43.25,-166.82 110.14,-214.19 58.74,-40.78 138.3,-61.17 238.61,-61.17 95.46,0 174.22,19.15 236.19,57.5 72.61,45.69 108.96,112.63 108.96,200.71 0,84.84 -43.25,145.64 -129.71,182.36 106.84,42.39 160.3,115.06 160.3,217.8zm1800.13 249.68l-216.61 0 0 -104.05c-61.17,84.9 -150.12,127.29 -266.79,127.29 -127.23,0 -230.48,-45.24 -309.59,-135.81 -78.33,-88.14 -117.48,-197.83 -117.48,-329.24 0,-130.53 39.53,-240.67 118.7,-330.42 79.13,-89.75 181.14,-134.63 305.94,-134.63 115.06,0 203.56,40.41 265.55,121.21l0 -95.48 220.28 0 0 881.13zm-212.94 -436.9c0,-73.4 -23.63,-136.83 -70.99,-190.29 -47.3,-53.46 -106.84,-80.15 -178.63,-80.15 -70.99,0 -129.35,27.3 -175.04,81.98 -44.02,51.4 -66.08,112.57 -66.08,183.54 0,71.79 22.88,133.83 68.57,186.03 48.12,54.64 106.84,82 176.2,82 67.69,0 126.07,-27.36 174.98,-82 47.36,-52.2 70.99,-112.57 70.99,-181.12zm2175.9 -3.67c0,77.52 22,139.91 66.08,187.23 44.88,49.77 105.66,74.64 182.36,74.64 76.7,0 137.48,-24.87 182.3,-74.64 44.08,-47.32 66.14,-109.71 66.14,-187.23 0,-77.5 -22.22,-141.15 -66.73,-190.94 -44.45,-49.73 -105,-74.64 -181.71,-74.64 -76.7,0 -137.28,24.92 -181.73,74.64 -44.49,49.79 -66.71,113.44 -66.71,190.94zm723.26 -4.91c0,140.36 -46.08,254.6 -138.3,342.68 -88.9,84.04 -201.1,126.04 -336.52,126.04 -134.63,0 -246.01,-42 -334.09,-126.04 -93.04,-88.08 -139.54,-202.32 -139.54,-342.68 0,-135.42 46.94,-247.2 140.73,-335.32 89.75,-84.84 200.71,-127.25 332.91,-127.25 132.96,0 244.77,42.41 335.32,127.25 92.99,88.12 139.5,199.89 139.5,335.32zm1369.31 -252.09l-173.73 0 0 697.57 -221.53 0 0 -697.57 -172.53 0 0 -183.56 567.79 0 0 183.56zm1650.88 697.57l-898.28 0 0 -182.36 95.46 0 236.21 -698.77 232.52 0 237.39 698.77 96.71 0 0 182.36zm-313.32 -182.36l-137.06 -436.9 -137.08 436.9 274.13 0zm2108.57 182.36l-222.75 0 0 -881.13 222.75 0 0 881.13zm-304.73 -270.44c0,97.09 -33.89,168.07 -101.58,212.94 -56.29,38.35 -135,57.5 -236.19,57.5l-269.26 0 0 -881.13 220.28 0 0 335.34 -3.67 0c113.42,-1.67 202.38,14.23 266.83,47.73 82.37,44.02 123.58,119.91 123.58,227.62zm-356.09 -104.05l-30.64 0 0 203.18 40.39 0c84.86,0 127.31,-33.05 127.31,-99.13 0,-69.36 -45.69,-104.05 -137.06,-104.05zm1544.35 374.49l310.83 -456.47 -287.59 -424.66 253.33 0 165.21 272.93 163.97 -272.93 253.35 0 -287.59 424.66 310.83 456.47 -253.72 0 -187.05 -287.59 -186.85 287.59 -254.74 0zm2631.29 0l-216.61 0 0 -104.05c-61.17,84.9 -150.1,127.29 -266.77,127.29 -127.25,0 -230.48,-45.24 -309.61,-135.81 -78.31,-88.14 -117.48,-197.83 -117.48,-329.24 0,-130.53 39.55,-240.67 118.73,-330.42 79.13,-89.75 181.12,-134.63 305.94,-134.63 115.06,0 203.56,40.41 265.53,121.21l0 -95.48 220.28 0 0 881.13zm-212.94 -436.9c0,-73.4 -23.63,-136.83 -70.97,-190.29 -47.3,-53.46 -106.86,-80.15 -178.65,-80.15 -70.97,0 -129.35,27.3 -175.02,81.98 -44.02,51.4 -66.08,112.57 -66.08,183.54 0,71.79 22.88,133.83 68.55,186.03 48.12,54.64 106.86,82 176.22,82 67.69,0 126.04,-27.36 174.98,-82 47.34,-52.2 70.97,-112.57 70.97,-181.12z"></path> <path class="fil0" d="M61.49 6025.79c-138.81,-12.82 -29.83,-559.6 199.65,-537.96 229.48,21.63 264.3,111.02 374.14,121.21 109.82,10.19 224.91,-42.82 376.87,-62.55 52.22,-6.81 151.49,-1.2 268.54,32.58 223.52,64.55 526.22,181.22 788.48,154.12 399.71,-41.35 670.45,-323 962.3,-413.43 291.85,-90.45 578.23,-100.68 868.76,24.18 290.52,124.86 2059.03,-270.22 2392.9,-369.61 333.85,-99.4 257.02,-235.76 610.67,-261.82 353.67,-26.08 827.06,134.49 1489.23,73.32 662.19,-61.17 1753.9,-332.48 2227.79,-382.42 473.86,-49.93 392.51,60.54 612.65,37.64 220.12,-22.92 498.86,-214.31 754.6,-224.61 255.76,-10.32 384.54,208.8 665.46,248.13 280.94,39.35 327.37,-34.72 496.11,1.41 168.76,36.15 251.44,206.26 534.17,211.09 282.73,4.85 708.27,-233.98 832.73,-247.58 124.45,-13.6 178.34,141.01 271.5,164.95 93.16,23.96 133.69,-18.74 209.33,-6.38 75.64,12.34 47.61,51.69 181.99,81.27 134.36,29.58 306.71,-25.04 715.06,50.56 408.35,75.6 1181.75,348.1 1717.92,389.33 536.17,41.23 852.4,-158.73 1363.45,-142.34 511.07,16.39 1310.06,206.95 1669.56,239.73 359.5,32.77 339.91,-54.13 497.45,-39.72 157.57,14.44 241.16,98.36 413.84,123.19 172.67,24.81 386.96,-24.39 561.68,-6.85 174.71,17.55 294.97,109.84 515.41,99.27 220.45,-10.54 550.83,-189.29 736.74,-239.88 185.91,-50.56 204.93,-27.93 321.8,-47.32 116.85,-19.39 189.58,-105.72 299.25,-102.01 109.65,3.73 399.38,138.05 576.46,188.8 177.06,50.73 355.89,71.16 550.79,42 194.9,-29.14 366.33,-135.32 677.85,-131.79 311.52,3.51 775.17,131.61 1039.94,135.16 264.79,3.57 337.62,-128.02 542.84,-156.32 205.22,-28.3 254.64,-62.08 751.42,27.91 254.76,46.14 744.26,197.18 1228.46,288.06 459.92,86.31 921.52,111.77 945.28,194.94 31.5,110.1 -346.1,67.08 -889.68,70.99 -299.35,2.16 -656.59,60.17 -1006.16,68.32 -984.26,23.04 -3303.9,39.94 -4053.64,27.2 -749.72,-12.76 -291.81,-103.8 -433.25,-103.72 -141.46,0.08 -24.59,91.55 -389.57,104.35 -364.96,12.78 -1427.74,-50.18 -1787.79,-27.83 -360.05,22.35 -177.96,161.2 -340.86,159.99 -162.93,-1.18 -380.52,-139.99 -577.38,-166.95 -196.88,-26.95 -446.38,5.79 -591.3,6.95 -144.93,1.16 -156.32,-9.28 -278.27,0 -121.93,9.28 -251.34,44.06 -452.17,55.66 -200.81,11.58 -489.17,16.23 -751.29,13.91 -262.1,-2.32 -598.93,-41.82 -820.84,-27.83 -221.93,14.01 -283.86,113.67 -500.88,111.3 -217,-2.34 -560.11,-121.7 -779.11,-125.21 -219.02,-3.53 -266.2,93.87 -514.78,104.35 -248.58,10.46 -663.5,-61.57 -966.95,-41.74 -303.43,19.82 -532.97,145.97 -841.72,159.99 -308.77,14.03 -186.38,-69.57 -994.78,-76.52 -808.38,-6.95 -3152.29,23.06 -3852.77,34.66 -700.49,11.6 -228.76,34.91 -348.9,34.91 -120.13,0 396.63,-31.32 -368.69,-34.78 -765.32,-3.49 -3391.45,4.55 -4221.71,13.82 -830.26,9.28 -539.39,41.82 -759.08,41.82 -219.69,0 75.52,-53.36 -556.52,-41.74 -632.04,11.64 -3026.16,94.63 -3164.97,81.8z"></path> <path class="fil0" d="M5469.95 6329.75c142.52,-138.4 367.98,-90.18 534.93,-169.03 112.18,-164.07 303.96,-166.11 468.6,-249.6 38.45,-363.13 -733.23,-431.49 -773.4,-603.92 -40.19,-172.43 166.62,-301.17 470.9,-461.99 -65.24,129.84 -36.62,264.1 61.13,343.9 97.77,79.8 588.14,568.63 813.66,393.43 225.52,-175.18 5.57,-341.54 -109.82,-871.88 -115.38,-530.32 2466.01,-1930.84 3191.27,-2314.44 -315.99,222.81 -436.37,452.64 -486.95,584.33 -34.78,78.84 17.64,105.64 -104.33,236.53 -121.99,130.88 -1202.95,914.37 -1293.91,1176.06 -90.96,261.71 -26.55,1196.51 -27.83,1794.34 34.56,166.35 187.8,273.21 323.59,302.96 315.36,55.64 691.9,-27.16 914.65,121.38 -241.87,-3.61 -420.26,23.47 -626.07,41.74 35.29,99.82 115.93,171.59 173.9,257.39 -209.13,-152.37 -488.09,-227.6 -772.36,-281.9 -229.56,53.34 -600.25,221.98 -943.71,172.76 -343.47,-49.22 -699.57,-197.51 -1087.77,-468.52 -271.26,-57.25 -465.24,-17.09 -726.5,-3.53z"></path> <path class="fil0" d="M6257.15 9249.81c-1.57,-92.42 225.36,-94.71 435.24,-91.42 209.91,3.28 515.19,-41.19 593.14,38.15 -65.67,112.26 -278.88,99.66 -460.79,102.07 -181.91,2.39 -479.96,-13.84 -567.59,-48.79z"></path> <path class="fil0" d="M5407.54 8651.8c19.68,-47.65 200.97,-61.04 446.7,-67.63 245.71,-6.61 645.29,-13.05 612.32,55.6 -22.08,84.92 -266.5,77.76 -461.1,84.88 -194.57,7.12 -613.44,5.16 -597.93,-72.85z"></path> <polygon class="fil0" points="6061.13,8213.27 8432.31,8196.08 8419.36,8420.28 6395.34,8353.36 "></polygon> <path class="fil0" d="M7250.52 7875.08c751.29,20.88 1568.92,23.67 2320.21,44.55 11.58,-62.61 -1.24,-125.82 10.34,-188.44 -347.82,-9.28 -678.2,20.59 -1026.02,11.32 -442.91,4.65 -861.33,-8.24 -1304.22,-3.59 -16.23,37.86 -61.47,115.77 -0.31,136.16z"></path> <polygon class="fil0" points="6169.23,7462.3 6182.95,7592.67 8624.64,7655.28 8617.69,7460.49 8219.41,7460.73 "></polygon> <polygon class="fil0" points="8983.79,7429.35 9125.23,7394.32 9948.09,7382.01 9950.17,7467.38 9070.97,7480.28 "></polygon> <path class="fil0" d="M4974.6 10618.11c-37.21,330.79 -400.91,591.06 -223.24,2092.91 99.95,844.7 527.28,812.32 796.99,2314.87 209.74,1168.6 -59.72,2735.86 319.23,4563.88 -255.58,-2629.63 13.97,-2971.44 -27.89,-4241.65 -41.86,-1270.24 -1218.22,-3545.22 69.71,-3346.88 1287.95,198.34 1342.52,3353.12 1130.22,5467.7 617.97,-2936.16 -196.86,-3408.92 446.5,-4492.8 1.51,897.42 83.47,2843.29 318.27,3806.12 195.73,719.06 630.35,1240 881.66,1914.53 -114.69,-533.09 -532.72,-931.35 -789.63,-2052.54 -144.09,-628.96 -199.43,-2068.94 -214.98,-2468.17 -43.33,-1111.18 568.16,-2335.36 1271.15,-1698.69 702.99,636.69 -118.89,2583.43 -168.86,3233.52 -49.99,650.06 -234.74,1165.44 13.95,502.28 248.66,-663.13 737.82,-1844.37 865.07,-2706.85 127.27,-862.48 -619.74,-2313.16 -111.61,-2399.89 508.14,-86.71 186.05,1013.93 362.76,2092.93 176.71,1079.01 664.23,2294.66 697.65,4381.19 157.75,-1109.31 -89.12,-2581.96 -183.28,-3847.18 -60.35,-810.95 48.75,-1536.84 15.84,-2026.95 -84.21,-1254.84 339.58,-1404.09 -334.87,-1604.58 -674.45,-200.51 -1787.2,726.79 -2692.9,683.68 -905.7,-43.1 -1394.83,-404.64 -1981.3,-404.64 -586.45,0 -423.21,-93.59 -460.45,237.21z"></path> <path class="fil0" d="M2930.86 7237.21c70.4,267.99 202.56,536.8 386.72,797.15 871.06,1449.29 2458.53,2419.28 4272.23,2419.28 2007.3,0 3737.45,-1188.15 4526.04,-2899.2 28.99,-52.73 58.21,-104.9 86.31,-159.42 157.14,1073.91 -581.01,2536.09 -613.91,3683.54 -32.91,1147.45 559.76,1516.07 418.59,3125.43 -141.17,1609.37 -1220.43,3727.48 -1255.76,6418.3 6.52,-3783.31 1587.35,-6929.64 203.14,-7265.3 -1384.21,-335.68 -1394.79,2658.46 -1068.2,4837.5 -1038.88,-4531.66 666.88,-4925.62 564.39,-6292.6 -102.52,-1366.98 -688.46,-1566.84 -1345.76,-1493.07 -657.3,73.77 -959.18,1207.13 -892.98,2553.36 66.2,1346.25 1351.83,3826.96 1478.41,5358.09 61.29,741.67 113.4,1429.74 -71.81,1974.11 -197.18,579.46 -635.67,1009.28 -667.11,1611.57 -60.96,1168.13 740.88,2316.38 362.78,4325.39 175,-2182.97 -520.69,-2844.43 -613.91,-4213.76 -52.46,-770.22 406.94,-1634.53 551.83,-2464.89 112.71,-645.76 119.62,-1409.64 -376.18,-1448.21 -839.89,-65.37 -1098.7,576.3 -1194.23,1624.84 -95.5,1048.53 512.38,1829.57 530.22,4283.51 -274.78,-2846.37 -666.46,-2741.51 -756.45,-4535.54 -90,-1794.05 870.88,-3365.09 926.17,-4366 55.3,-1000.92 -600.25,-1039.74 -952.72,-901.42 -352.47,138.34 -1098.52,503.18 -1198.3,1835.89 -99.78,1332.73 785.41,3953.11 892.98,5581.15 107.59,1628.04 245.57,2816.66 -251.15,4130.02 344.51,-2620.05 98.07,-3426.74 27.99,-4157.93 -70.08,-731.19 -1410.8,-4889.21 -1071.89,-6419.93 338.91,-1530.75 1841.17,-3766.04 764.85,-4421.42 -1076.34,-655.38 -2353.95,-126 -2289.79,851.08 64.16,977.1 1043.02,2644.17 1131.69,3809.18 88.67,1164.99 -483.3,1765.61 -613.91,3083.57 -130.61,1317.95 596.48,1237.39 -167.43,4799.76 435.94,-3407.01 -173,-3893.75 -192.02,-4556.01 -19.04,-662.26 526.69,-1895.22 558.6,-2768.46 23.26,-637.12 -431.27,-1145.41 -949.13,-1085.37 -594.65,68.94 -967.81,583.82 -876.89,1295.95 96.75,758.04 546.92,1677.94 664.13,2300.17 180.75,959.51 383.44,1908.39 83.72,3641.7 76.44,-2239.73 -561.51,-3722.61 -910.1,-5015.82 -131.16,-486.65 -204.89,-926.46 -220.12,-1384.9 -48.02,-1444.89 492.86,-2056.58 516.29,-3505.79 22.2,-1371.35 -757.8,-3528.87 -500.49,-5285.81 31.22,101.56 65.75,201.67 103.19,300.33z"></path> </g> </g> </svg> 